<svg id="Lag_1" data-name="Lag 1" xmlns="http://www.w3.org/2000/svg" viewBox="0 0 440.64 109.39"><defs><style>.cls-1,.cls-2{fill:#fff;}.cls-2{fill-rule:evenodd;}</style></defs><title>ABRACE logo</title><path class="cls-1" d="M109.65,60.91H547.49V170.3H106.86V60.91ZM541.91,66.5H112.45v98.21H541.91V66.5Z" transform="translate(-106.86 -60.91)"/><path class="cls-1" d="M236.74,97.08h-16.6v37.05h17.13a22.23,22.23,0,0,0,5.6-.66,13,13,0,0,0,4.33-1.95,8.85,8.85,0,0,0,2.77-3.2,9.5,9.5,0,0,0,1-4.39,9.77,9.77,0,0,0-.53-3.35,7.12,7.12,0,0,0-1.5-2.51,9.33,9.33,0,0,0-2.31-1.83,20.32,20.32,0,0,0-3-1.34,13.4,13.4,0,0,0,2-1.28,8,8,0,0,0,2.84-4,9.46,9.46,0,0,0,.45-3,8.31,8.31,0,0,0-3.28-6.94c-2.19-1.7-5.14-2.55-8.87-2.55Zm-1.27,15.67H226.6v-9.9h9.34a7.9,7.9,0,0,1,4.83,1.25,4.18,4.18,0,0,1,1.66,3.54,4.28,4.28,0,0,1-1.9,3.85,9,9,0,0,1-5.06,1.26Zm1.89,15.61H226.6V118.2h10.3a10,10,0,0,1,5.72,1.32,4.28,4.28,0,0,1,1.87,3.71,4.37,4.37,0,0,1-1.89,3.84,9.23,9.23,0,0,1-5.24,1.29Z" transform="translate(-106.86 -60.91)"/><path class="cls-1" d="M315.23,134.13l-10-14a13.88,13.88,0,0,0,3.57-1.5,11.06,11.06,0,0,0,2.78-2.39,10.83,10.83,0,0,0,1.83-3.22,13.26,13.26,0,0,0-.29-9.06,10.09,10.09,0,0,0-2.73-3.7,12.44,12.44,0,0,0-4.34-2.33,18.75,18.75,0,0,0-5.75-.82H283.79v37.05h6.46V121.22h8.18l9.13,12.91Zm-7.78-25a5.59,5.59,0,0,1-2.07,4.57,8.49,8.49,0,0,1-5.58,1.71h-9.55V103h9.5a9,9,0,0,1,5.68,1.58,5.49,5.49,0,0,1,2,4.64Z" transform="translate(-106.86 -60.91)"/><path class="cls-1" d="M444.69,128.2,440.51,124a23.28,23.28,0,0,1-4.81,3.52,12.33,12.33,0,0,1-5.83,1.3,11.56,11.56,0,0,1-4.89-1,11.78,11.78,0,0,1-3.89-2.83,12.71,12.71,0,0,1-2.54-4.21,14.58,14.58,0,0,1-.9-5.16,14.41,14.41,0,0,1,.9-5.13,12.58,12.58,0,0,1,2.54-4.16,12.14,12.14,0,0,1,3.89-2.8,11.56,11.56,0,0,1,4.89-1,12.26,12.26,0,0,1,5.67,1.27,20.45,20.45,0,0,1,4.71,3.33l4.18-4.82a26.12,26.12,0,0,0-2.81-2.33,18,18,0,0,0-3.22-1.82,19,19,0,0,0-3.84-1.19,23.6,23.6,0,0,0-4.63-.43A19.38,19.38,0,0,0,422.2,98a18.64,18.64,0,0,0-6,4.13,18.93,18.93,0,0,0-3.94,6.11,19.77,19.77,0,0,0-1.4,7.47,19.47,19.47,0,0,0,1.43,7.51,18.66,18.66,0,0,0,3.94,6.07,18.39,18.39,0,0,0,5.95,4,18.8,18.8,0,0,0,7.52,1.49,23.13,23.13,0,0,0,4.74-.45,16.6,16.6,0,0,0,3.94-1.33,19.76,19.76,0,0,0,3.36-2.06,23,23,0,0,0,3-2.73Z" transform="translate(-106.86 -60.91)"/><polygon class="cls-1" points="397.51 36.17 370.09 36.17 370.09 73.22 397.77 73.22 397.77 67.34 376.55 67.34 376.55 57.45 395.13 57.45 395.13 51.57 376.55 51.57 376.55 42.04 397.51 42.04 397.51 36.17 397.51 36.17"/><polygon class="cls-2" points="68.48 58.51 55.73 58.51 62.08 43.68 65.31 36.15 65.2 35.9 59.17 35.9 42.86 73.22 49.53 73.22 53.34 64.27 70.86 64.27 74.62 73.22 81.5 73.22 75.08 58.51 68.48 58.51 68.48 58.51"/><polygon class="cls-2" points="250.47 58.51 263.23 58.51 256.88 43.68 253.65 36.15 253.76 35.9 259.79 35.9 276.09 73.22 269.43 73.22 265.61 64.27 248.09 64.27 244.34 73.22 237.45 73.22 243.88 58.51 250.47 58.51 250.47 58.51"/></svg>